<?xml version="1.0" encoding="UTF-8"?>
<svg id="Layer_1" xmlns="http://www.w3.org/2000/svg" xmlns:xlink="http://www.w3.org/1999/xlink" version="1.1" viewBox="0 0 400 400">
  <!-- Generator: Adobe Illustrator 29.5.1, SVG Export Plug-In . SVG Version: 2.1.0 Build 141)  -->
  <defs>
    <style>
      .st0 {
        display: none;
        fill: none;
        stroke: #ed3955;
        stroke-miterlimit: 10;
      }

      .st1 {
        filter: url(#drop-shadow-1);
      }

      .st1, .st2, .st3, .st4 {
        fill: #ed3955;
      }

      .st2 {
        filter: url(#drop-shadow-3);
      }

      .st3 {
        filter: url(#drop-shadow-2);
      }

      .st4 {
        filter: url(#drop-shadow-4);
      }
    </style>
    <filter id="drop-shadow-1" x="-70.1" y="-68.1" width="525" height="532" filterUnits="userSpaceOnUse">
      <feOffset dx="0" dy="0"/>
      <feGaussianBlur result="blur" stdDeviation="56.7"/>
      <feFlood flood-color="#fff" flood-opacity="1"/>
      <feComposite in2="blur" operator="in"/>
      <feComposite in="SourceGraphic"/>
    </filter>
    <filter id="drop-shadow-2" x="-70.1" y="-68.1" width="525" height="532" filterUnits="userSpaceOnUse">
      <feOffset dx="0" dy="0"/>
      <feGaussianBlur result="blur1" stdDeviation="56.7"/>
      <feFlood flood-color="#fff" flood-opacity="1"/>
      <feComposite in2="blur1" operator="in"/>
      <feComposite in="SourceGraphic"/>
    </filter>
    <filter id="drop-shadow-3" x="-70.1" y="-68.1" width="525" height="532" filterUnits="userSpaceOnUse">
      <feOffset dx="0" dy="0"/>
      <feGaussianBlur result="blur2" stdDeviation="56.7"/>
      <feFlood flood-color="#fff" flood-opacity="1"/>
      <feComposite in2="blur2" operator="in"/>
      <feComposite in="SourceGraphic"/>
    </filter>
    <filter id="drop-shadow-4" x="-70.1" y="-68.1" width="525" height="532" filterUnits="userSpaceOnUse">
      <feOffset dx="0" dy="0"/>
      <feGaussianBlur result="blur3" stdDeviation="56.7"/>
      <feFlood flood-color="#fff" flood-opacity="1"/>
      <feComposite in2="blur3" operator="in"/>
      <feComposite in="SourceGraphic"/>
    </filter>
  </defs>
  <path class="st1" d="M283,151.7l-34.2,44.6c-2.7,3.5-2.9,8.2-.7,12l28.8,48.2c2.2,3.6-.6,7.9-4.4,7.9s-1.2,0-1.8-.3l-53-18.7c-1.2-.4-2.4-.6-3.6-.6-3,0-6,1.3-8,3.6l-37,42.3c-1.1,1.2-2.5,1.8-3.9,1.8-2.7,0-5.3-2.1-5.3-5.4l1.5-56.2c.1-4.4-2.5-8.4-6.5-10.1l-51.7-22.1c-4.5-1.9-4.1-8.4.6-9.8l53.9-16c4.2-1.2,7.2-4.9,7.6-9.3l5-56c.3-3,2.7-4.7,5.2-4.7s3.2.7,4.2,2.3l31.8,46.3c2,2.9,5.3,4.6,8.8,4.6s1.6,0,2.4-.3l54.8-12.5c.4,0,.8-.1,1.2-.1,4.1,0,6.8,4.9,4.1,8.4h.2Z"/>
  <path class="st3" d="M283,151.7l-34.2,44.6c-2.7,3.5-2.9,8.2-.7,12l28.8,48.2c2.2,3.6-.6,7.9-4.4,7.9s-1.2,0-1.8-.3l-53-18.7c-1.2-.4-2.4-.6-3.6-.6-3,0-6,1.3-8,3.6l-37,42.3c-1.1,1.2-2.5,1.8-3.9,1.8-2.7,0-5.3-2.1-5.3-5.4l1.5-56.2c.1-4.4-2.5-8.4-6.5-10.1l-51.7-22.1c-4.5-1.9-4.1-8.4.6-9.8l53.9-16c4.2-1.2,7.2-4.9,7.6-9.3l5-56c.3-3,2.7-4.7,5.2-4.7s3.2.7,4.2,2.3l31.8,46.3c2,2.9,5.3,4.6,8.8,4.6s1.6,0,2.4-.3l54.8-12.5c.4,0,.8-.1,1.2-.1,4.1,0,6.8,4.9,4.1,8.4h.2Z"/>
  <path class="st2" d="M283,151.7l-34.2,44.6c-2.7,3.5-2.9,8.2-.7,12l28.8,48.2c2.2,3.6-.6,7.9-4.4,7.9s-1.2,0-1.8-.3l-53-18.7c-1.2-.4-2.4-.6-3.6-.6-3,0-6,1.3-8,3.6l-37,42.3c-1.1,1.2-2.5,1.8-3.9,1.8-2.7,0-5.3-2.1-5.3-5.4l1.5-56.2c.1-4.4-2.5-8.4-6.5-10.1l-51.7-22.1c-4.5-1.9-4.1-8.4.6-9.8l53.9-16c4.2-1.2,7.2-4.9,7.6-9.3l5-56c.3-3,2.7-4.7,5.2-4.7s3.2.7,4.2,2.3l31.8,46.3c2,2.9,5.3,4.6,8.8,4.6s1.6,0,2.4-.3l54.8-12.5c.4,0,.8-.1,1.2-.1,4.1,0,6.8,4.9,4.1,8.4h.2Z"/>
  <path class="st4" d="M283,151.7l-34.2,44.6c-2.7,3.5-2.9,8.2-.7,12l28.8,48.2c2.2,3.6-.6,7.9-4.4,7.9s-1.2,0-1.8-.3l-53-18.7c-1.2-.4-2.4-.6-3.6-.6-3,0-6,1.3-8,3.6l-37,42.3c-1.1,1.2-2.5,1.8-3.9,1.8-2.7,0-5.3-2.1-5.3-5.4l1.5-56.2c.1-4.4-2.5-8.4-6.5-10.1l-51.7-22.1c-4.5-1.9-4.1-8.4.6-9.8l53.9-16c4.2-1.2,7.2-4.9,7.6-9.3l5-56c.3-3,2.7-4.7,5.2-4.7s3.2.7,4.2,2.3l31.8,46.3c2,2.9,5.3,4.6,8.8,4.6s1.6,0,2.4-.3l54.8-12.5c.4,0,.8-.1,1.2-.1,4.1,0,6.8,4.9,4.1,8.4h.2Z"/>
  <circle class="st0" cx="199.5" cy="199.5" r="99.2"/>
</svg>