<?xml version="1.0" encoding="UTF-8"?>
<svg id="Layer_1" xmlns="http://www.w3.org/2000/svg" xmlns:xlink="http://www.w3.org/1999/xlink" version="1.1" viewBox="0 0 595.3 841.9">
  <!-- Generator: Adobe Illustrator 29.5.1, SVG Export Plug-In . SVG Version: 2.1.0 Build 141)  -->
  <defs>
    <style>
      .st0 {
        fill: #f15a29;
      }

      .st0, .st1, .st2, .st3, .st4 {
        font-family: GoodlyBold, Goodly;
      }

      .st0, .st1, .st4 {
        font-size: 35.8px;
      }

      .st5 {
        fill: #fff;
        stroke: #bcbcbc;
        stroke-miterlimit: 10;
        stroke-width: 2px;
      }

      .st1 {
        fill: #662d91;
      }

      .st6 {
        fill: #231f20;
      }

      .st7 {
        fill: url(#radial-gradient);
      }

      .st2 {
        fill: #808285;
        font-size: 26px;
      }

      .st8 {
        fill: #933649;
      }

      .st3 {
        fill: #da1c5c;
        font-size: 44px;
      }

      .st9 {
        fill: url(#radial-gradient1);
      }

      .st10 {
        fill: url(#radial-gradient2);
      }

      .st11 {
        display: none;
      }

      .st4 {
        fill: #1c75bc;
      }
    </style>
    <radialGradient id="radial-gradient" cx="48.9" cy="840.3" fx="48.9" fy="840.3" r="830.9" gradientUnits="userSpaceOnUse">
      <stop offset="0" stop-color="#ff512f"/>
      <stop offset="1" stop-color="#dd2476"/>
    </radialGradient>
    <radialGradient id="radial-gradient1" cx="294.3" cy="291.2" fx="294.3" fy="291.2" r="192.7" gradientUnits="userSpaceOnUse">
      <stop offset=".4" stop-color="#fff"/>
      <stop offset="1" stop-color="#e6e7e8"/>
    </radialGradient>
    <radialGradient id="radial-gradient2" cx="79.2" cy="706.9" fx="79.2" fy="706.9" r="542" xlink:href="#radial-gradient"/>
  </defs>
  <g>
    <g>
      <path class="st6" d="M299.6,617.2c9.4,17.3,16.9,34.9,22.5,52.9l1.3,4.2,43.6-5.9.2-4.4c.7-18.9,3.2-37.8,7.7-57l-75.3,10.1Z"/>
      <path class="st6" d="M559.1,255.8c-8.7-64.5-40.5-123.6-89.7-166.2-48.7-42.2-110.8-65.5-175-65.5s-24.1.8-36,2.4c-35.8,4.8-69.5,16.5-100.3,34.7-29.8,17.6-55.5,40.5-76.6,68.1s-36.3,58.5-45.4,91.9c-9.4,34.5-11.8,70.2-6.9,106,11.7,86.6,68.1,143,117.9,192.8,2.9,2.9,5.8,5.8,8.7,8.7,26.5,26.6,50,50.7,69.5,76.3,13.8,18.1,24.6,35.6,32.8,53.4-3.9,2.8-7.3,6.1-10.3,10-7.8,10.2-11.2,22.9-9.5,35.6v.7c0,0,.2.7.2.7l11.2,60.4c4.4,29.1,29.6,51,59.1,51s5.3-.2,8-.5l94.2-12.7c15.8-2.1,29.8-10.3,39.5-23,9.5-12.5,13.7-27.9,11.8-43.4l-5.2-61.2v-.7c0,0-.2-.7-.2-.7-2.4-18-14.8-32.7-31.1-38.8,3.2-19.4,9-39.1,17.5-60.3,12.1-29.8,28.3-59.3,46.8-92,2-3.6,4-7.1,6.1-10.7,34.8-61.2,74.3-130.5,62.7-217.1ZM393,664.9l13.9-1.9c.8-.1,1.6-.2,2.4-.2,8.9,0,16.8,6.7,18,15.8l5.3,61.8c2.2,16.2-9.3,31.3-25.5,33.5l-94.2,12.7c-1.3.2-2.7.3-4,.3-14.7,0-27.5-10.9-29.5-25.8l-11.3-61c-1.3-9.9,5.7-19.1,15.6-20.5l13.9-1.9c-21.5-68.8-67.7-117-120.6-170.2-50.8-51-107.2-103.2-118.1-184.4C41.3,193.3,132.5,73.8,262.4,56.3c10.8-1.5,21.4-2.2,32-2.2,117,0,218.9,86.5,234.9,205.7,10.9,81.2-29.7,146.4-65.1,209.1-37,65.3-68.8,124-71.2,196Z"/>
    </g>
    <g>
      <path class="st7" d="M299.6,617.2c9.4,17.3,16.9,34.9,22.5,52.9l1.3,4.2,43.6-5.9.2-4.4c.7-18.9,3.2-37.8,7.7-57l-75.3,10.1Z"/>
      <g>
        <path class="st7" d="M559.1,255.8c-8.7-64.5-40.5-123.6-89.7-166.2-48.7-42.2-110.8-65.5-175-65.5s-24.1.8-36,2.4c-35.8,4.8-69.5,16.5-100.3,34.7-29.8,17.6-55.5,40.5-76.6,68.1s-36.3,58.5-45.4,91.9c-9.4,34.5-11.8,70.2-6.9,106,11.7,86.6,68.1,143,117.9,192.8,2.9,2.9,5.8,5.8,8.7,8.7,26.5,26.6,50,50.7,69.5,76.3,13.8,18.1,24.6,35.6,32.8,53.4-3.9,2.8-7.3,6.1-10.3,10-7.8,10.2-11.2,22.9-9.5,35.6v.7c0,0,.2.7.2.7l11.2,60.4c4.4,29.1,29.6,51,59.1,51s5.3-.2,8-.5l94.2-12.7c15.8-2.1,29.8-10.3,39.5-23,9.5-12.5,13.7-27.9,11.8-43.4l-5.2-61.2v-.7c0,0-.2-.7-.2-.7-2.4-18-14.8-32.7-31.1-38.8,3.2-19.4,9-39.1,17.5-60.3,12.1-29.8,28.3-59.3,46.8-92,2-3.6,4-7.1,6.1-10.7,34.8-61.2,74.3-130.5,62.7-217.1ZM393,664.9l13.9-1.9c.8-.1,1.6-.2,2.4-.2,8.9,0,16.8,6.7,18,15.8l5.3,61.8c2.2,16.2-9.3,31.3-25.5,33.5l-94.2,12.7c-1.3.2-2.7.3-4,.3-14.7,0-27.5-10.9-29.5-25.8l-11.3-61c-1.3-9.9,5.7-19.1,15.6-20.5l13.9-1.9c-21.5-68.8-67.7-117-120.6-170.2-50.8-51-107.2-103.2-118.1-184.4C41.3,193.3,132.5,73.8,262.4,56.3c10.8-1.5,21.4-2.2,32-2.2,117,0,218.9,86.5,234.9,205.7,10.9,81.2-29.7,146.4-65.1,209.1-37,65.3-68.8,124-71.2,196Z"/>
        <path class="st7" d="M294.4,25.1c63.9,0,125.8,23.2,174.3,65.3,49,42.5,80.7,101.3,89.4,165.6,11.6,86.3-27.8,155.5-62.5,216.5-2,3.6-4.1,7.2-6.1,10.7-18.5,32.7-34.8,62.2-46.9,92.1-8.6,21.3-14.4,41.1-17.6,60.5v.8c-.1,0,.6.3.6.3,16.5,6.1,28.1,20.7,30.5,38v.7c0,0,.2.7.2.7l5.2,61.2c1.8,15.2-2.3,30.4-11.6,42.6-9.5,12.5-23.3,20.5-38.9,22.6l-94.2,12.7c-2.6.3-5.2.5-7.8.5-28.9,0-53.9-21.5-58.2-50.1l-11.2-60.4v-.7c-.1,0-.2-.7-.2-.7-1.7-12.5,1.6-24.9,9.3-34.9,2.9-3.8,6.3-7.1,10.1-9.8l.7-.5-.3-.7c-8.2-17.8-19-35.4-32.9-53.6-19.6-25.6-43.1-49.7-69.6-76.4-2.8-2.9-5.7-5.7-8.6-8.6h-.1c-49.7-49.8-106-106.1-117.6-192.3-4.8-35.6-2.5-71.1,6.9-105.6,9.1-33.2,24.3-64,45.3-91.5,21-27.5,46.6-50.3,76.3-67.9,30.7-18.2,64.3-29.8,100-34.6,11.9-1.6,24-2.4,35.9-2.4M296.3,676.9l-12.7,1.7c-5.1.7-9.6,3.3-12.7,7.4-3.1,4.1-4.5,9.1-3.8,14.2l11.3,60.9c2,15.2,15.2,26.7,30.5,26.7s2.7,0,4.1-.3l94.2-12.7c16.8-2.3,28.7-17.8,26.4-34.6l-5.3-61.8c-1.3-9.5-9.5-16.6-19-16.6-.9,0-1.7,0-2.6.2l-12.7,1.7c1.3-32.6,8.4-64.1,22.6-99,12.7-31.4,29.5-61.8,48.5-95.4,2-3.6,4.1-7.2,6.1-10.8,34.2-60,69.5-122,59.1-198.9-7.8-57.5-36.1-110.2-80-148.2-43.4-37.7-98.8-58.4-156-58.4s-21.5.7-32.1,2.2c-31.9,4.3-62,14.7-89.5,31-26.5,15.7-49.5,36.1-68.3,60.7-18.8,24.6-32.4,52.2-40.5,81.9-8.4,30.8-10.5,62.6-6.2,94.5,10.4,76.9,60.8,127.4,109.7,176.2,2.9,2.9,5.9,5.9,8.8,8.8,27.2,27.3,51.4,52.2,72,79.1,22.9,29.9,38.1,58.4,48,89.5M294.4,24.1c-12,0-24.1.8-36,2.4-35.8,4.8-69.5,16.5-100.3,34.7-29.8,17.6-55.5,40.5-76.6,68.1-21,27.6-36.3,58.5-45.4,91.9-9.4,34.6-11.8,70.2-6.9,106,11.7,86.6,68.1,143,117.9,192.8,2.9,2.9,5.8,5.8,8.7,8.7,26.5,26.6,50,50.7,69.5,76.3,13.8,18.1,24.6,35.6,32.8,53.4-3.9,2.8-7.3,6.1-10.3,10-7.8,10.2-11.2,22.9-9.5,35.6v.7c0,0,.2.7.2.7l11.2,60.4c4.4,29.1,29.6,51,59.1,51s5.3-.2,8-.5l94.2-12.7c15.8-2.1,29.8-10.3,39.5-23,9.5-12.5,13.7-27.9,11.8-43.4l-5.2-61.2v-.7c0,0-.2-.7-.2-.7-2.4-18-14.8-32.7-31.1-38.8,3.2-19.4,9-39.1,17.5-60.3,12.1-29.8,28.3-59.3,46.8-92,2-3.6,4-7.1,6.1-10.7,34.8-61.2,74.3-130.5,62.7-217.1-8.7-64.5-40.5-123.6-89.7-166.2-48.7-42.2-110.8-65.5-175-65.5h0ZM308.9,786.9c-14.7,0-27.5-10.9-29.5-25.8l-11.3-61c-1.3-9.9,5.7-19.1,15.6-20.5l13.9-1.9c-21.5-68.8-67.7-117-120.6-170.2-50.8-51-107.2-103.2-118.1-184.4C41.3,193.3,132.5,73.8,262.4,56.3c10.8-1.5,21.4-2.2,32-2.2,117,0,218.9,86.5,234.9,205.7,10.9,81.2-29.7,146.4-65.1,209.1-37,65.3-68.8,124-71.2,196l13.9-1.9c.8-.1,1.6-.2,2.4-.2,8.9,0,16.8,6.7,18,15.8l5.3,61.8c2.2,16.2-9.3,31.3-25.5,33.5l-94.2,12.7c-1.3.2-2.7.3-4,.3h0Z"/>
      </g>
    </g>
  </g>
  <g id="While" class="st11">
    <circle class="st5" cx="294.3" cy="290.8" r="214.2"/>
    <polygon class="st9" points="294.3 277.9 374.1 98.5 303.7 281.8 487 211.4 307.6 291.2 487 371 303.7 300.6 374.1 483.9 294.3 304.4 214.5 483.9 285 300.6 101.7 371 281.1 291.2 101.7 211.4 285 281.8 214.5 98.5 294.3 277.9"/>
    <g>
      <path class="st8" d="M384,242.4l-37.5,49c-2.9,3.8-3.2,9-.8,13.1l31.6,53c2.4,4-.7,8.7-4.9,8.7s-1.3-.1-2-.3l-58.2-20.6c-1.3-.5-2.6-.7-3.9-.7-3.3,0-6.6,1.4-8.8,4l-40.6,46.5c-1.2,1.4-2.7,2-4.3,2-3,0-5.9-2.3-5.8-5.9l1.6-61.7c.1-4.8-2.7-9.2-7.1-11.1l-56.7-24.2c-4.9-2.1-4.5-9.2.6-10.7l59.1-17.5c4.6-1.4,7.9-5.4,8.3-10.2l5.5-61.4c.3-3.3,3-5.2,5.7-5.2s3.5.8,4.7,2.5l35,50.8c2.2,3.2,5.8,5.1,9.6,5.1s1.7,0,2.6-.3l60.1-13.7c.5-.1.9-.2,1.3-.2,4.5,0,7.4,5.3,4.5,9.2Z"/>
      <path class="st10" d="M384,242.4l-37.5,49c-2.9,3.8-3.2,9-.8,13.1l31.6,53c2.4,4-.7,8.7-4.9,8.7s-1.3-.1-2-.3l-58.2-20.6c-1.3-.5-2.6-.7-3.9-.7-3.3,0-6.6,1.4-8.8,4l-40.6,46.5c-1.2,1.4-2.7,2-4.3,2-3,0-5.9-2.3-5.8-5.9l1.6-61.7c.1-4.8-2.7-9.2-7.1-11.1l-56.7-24.2c-4.9-2.1-4.5-9.2.6-10.7l59.1-17.5c4.6-1.4,7.9-5.4,8.3-10.2l5.5-61.4c.3-3.3,3-5.2,5.7-5.2s3.5.8,4.7,2.5l35,50.8c2.2,3.2,5.8,5.1,9.6,5.1s1.7,0,2.6-.3l60.1-13.7c.5-.1.9-.2,1.3-.2,4.5,0,7.4,5.3,4.5,9.2Z"/>
    </g>
    <text class="st3" transform="translate(230.9 134.9) scale(.9 1)"><tspan x="0" y="0">-100%</tspan></text>
    <text class="st2" transform="translate(405.2 152.8) rotate(45) scale(.9 1)"><tspan x="0" y="0">Try</tspan><tspan x="-13.7" y="31.2">again</tspan></text>
    <text class="st1" transform="translate(450.6 248.4) rotate(90) scale(.9 1)"><tspan x="0" y="0">-25%</tspan></text>
    <text class="st2" transform="translate(432.7 402.1) rotate(135) scale(.9 1)"><tspan x="0" y="0">Try</tspan><tspan x="-13.7" y="31.2">again</tspan></text>
    <text class="st4" transform="translate(339 447.5) rotate(-180) scale(.9 1)"><tspan x="0" y="0">-50%</tspan></text>
    <text class="st2" transform="translate(183.5 429.6) rotate(-135) scale(.9 1)"><tspan x="0" y="0">Try</tspan><tspan x="-13.7" y="31.2">again</tspan></text>
    <text class="st0" transform="translate(138 333.5) rotate(-90) scale(.9 1)"><tspan x="0" y="0">-75%</tspan></text>
    <text class="st2" transform="translate(155.9 180.3) rotate(-45) scale(.9 1)"><tspan x="0" y="0">Try</tspan><tspan x="-13.7" y="31.2">again</tspan></text>
  </g>
</svg>