<?xml version="1.0" encoding="UTF-8"?>
<svg id="Layer_1" xmlns="http://www.w3.org/2000/svg" version="1.1" viewBox="0 0 595.3 841.9">
  <!-- Generator: Adobe Illustrator 29.5.1, SVG Export Plug-In . SVG Version: 2.1.0 Build 141)  -->
  <defs>
    <style>
      .st0 {
        fill: #fff;
      }
    </style>
  </defs>
  <path class="st0" d="M566.9,275.5h0c-.1-2.7-.3-5.4-.5-8.1-.3-4.1-.8-8.3-1.3-12.4-4.4-32.8-14.6-64.2-30.3-93.4-1.9-3.6-4-7.2-6.1-10.7-8.4-14-18.1-27.4-28.9-39.7-8.1-9.3-17-18.1-26.4-26.2-49.8-43.2-113.3-67-178.9-67s-6.2,0-9.4.2c-9.1.3-18.4,1.1-27.4,2.3-36.6,4.9-71.1,16.9-102.6,35.5-7.6,4.5-15,9.4-22,14.5-1.8,1.3-3.5,2.6-5.3,3.9-2.3,1.8-4.7,3.6-7.5,6-2.9,2.4-5.4,4.6-7.7,6.6-6.5,5.8-12.8,12-18.8,18.4-3,3.2-5.9,6.5-8.7,9.9-2.8,3.4-5.6,6.9-8.3,10.4-1.3,1.7-2.7,3.5-4,5.3-2.6,3.6-5.1,7.2-7.5,10.9-1.2,1.8-2.4,3.7-3.5,5.6-5.8,9.3-11,19-15.6,28.9-.9,2-1.8,4-2.7,6-3.5,8-6.6,16.3-9.3,24.6-.7,2.1-1.3,4.2-2,6.3-.6,2.1-1.2,4.2-1.8,6.4-5.4,19.8-8.5,40.1-9.4,60.5-.5,11.3-.2,22.8.8,34.1.4,4.6.9,9.2,1.5,13.7,1.4,10.5,3.5,20.9,6.3,31.1.2.6.3,1.1.5,1.7,3,10.8,6.9,21.5,11.5,31.9,1.5,3.4,3.1,6.9,4.8,10.2.6,1.1,1.1,2.2,1.7,3.3,1.1,2.2,2.3,4.4,3.5,6.6.6,1.1,1.2,2.2,1.8,3.2,1.2,2.1,2.4,4.3,3.7,6.4,1.2,2.1,2.5,4.2,3.9,6.2,6.8,10.7,14.4,21.3,23.3,32.3,1.5,1.9,3,3.7,4.5,5.5,5,6,10.3,12.1,16.3,18.6.8.9,1.6,1.7,2.4,2.6,11.8,12.8,23.9,24.8,35.6,36.6,2.9,2.9,5.8,5.8,8.7,8.7,26.3,26.5,49.7,50.4,69,75.7,12.5,16.4,22.4,32.2,30.1,48.1-.8.7-1.5,1.3-2.2,2-1,.9-1.9,1.9-2.8,2.9-.9,1-1.8,2.1-2.6,3.2-.4.5-.7,1-1.1,1.5h0c-.3.6-.6,1-.9,1.5-.6.9-1.2,1.9-1.7,2.8-.4.7-.8,1.4-1.1,2.1-.3.7-.7,1.3-1,2-1.7,3.6-3,7.4-3.8,11.2-.3,1.1-.5,2.3-.6,3.4-.3,1.7-.4,3.3-.5,4.9-.2,3.5,0,7.1.4,10.7v.7c0,0,11.4,61.3,11.4,61.3.4,2.7,1,5.4,1.8,8.1.1.4.3.9.4,1.3.4,1.4.9,2.8,1.4,4.2.2.6.5,1.3.8,1.9,2.5,5.9,5.8,11.4,9.8,16.3.6.7,1.2,1.5,1.9,2.2.6.7,1.3,1.4,2,2.1,2.3,2.4,4.9,4.7,7.7,6.8,6.8,5.1,14.3,8.8,22.5,11,1.5.4,2.9.7,4.4,1,4.1.8,8.4,1.2,12.5,1.2s1.5,0,2.3,0c2.2,0,4.3-.3,6.5-.5l94.2-12.7c2.1-.3,4.3-.7,6.4-1.2,1-.2,2.1-.5,3.1-.8,1.7-.5,3.4-1.1,5.3-1.8,2.3-.9,4.6-1.9,6.6-3,.9-.5,1.9-1,2.8-1.5,7.5-4.3,13.9-10.1,19.2-17,8.5-11.1,13.2-24.3,13.5-38.2,0-2.1,0-4.2-.2-6.4,0-1-.2-2-.3-3.1l-5.2-61.1-.2-1.7c-.3-1.9-.6-3.8-1.1-5.6-.3-1.2-.6-2.4-1-3.6-.6-1.8-1.2-3.5-2-5.2-.7-1.7-1.6-3.3-2.5-4.9-.6-1.1-1.2-2.1-1.9-3.1-2-3-4.3-5.9-6.9-8.4-1.3-1.3-2.6-2.5-4-3.7-1.9-1.5-3.8-3-5.9-4.2-1.7-1-3.4-2-5.2-2.8,1.5-8,3.4-15.9,5.8-24.2.4-1.2.7-2.5,1.1-3.7.8-2.5,1.6-5,2.4-7.4.4-1.2.8-2.5,1.3-3.8.9-2.5,1.8-5,2.8-7.6.9-2.5,2-5.1,3-7.7,1.5-3.6,3-7.3,4.6-11,1.6-3.6,3.3-7.3,5-11,1.7-3.6,3.5-7.3,5.4-11.1,4.3-8.6,9.1-17.8,14.9-28.4,2.1-3.9,4.3-7.8,6.5-11.7,1.5-2.7,3-5.4,4.5-8.1,1.8-3.3,3.7-6.6,5.6-9.9,2-3.6,4-7.1,6.1-10.7l5.7-9.9c1.7-3,3.5-6.1,5.2-9.2.8-1.4,1.6-2.8,2.4-4.3.9-1.5,1.7-3.1,2.6-4.6,3.7-6.7,6.9-12.8,9.9-18.7.5-.9.9-1.8,1.4-2.6,2.5-5,4.8-9.6,7-14.2,1.5-3.2,3-6.5,4.4-9.7,2-4.4,3.9-8.9,5.6-13.2.4-1.1.9-2.2,1.3-3.3,3.2-8.1,6-16.2,8.4-24,.4-1.2.7-2.3,1.1-3.5,5.2-17.6,8.4-34.5,9.8-51.5.2-2.6.4-5.2.5-7.7.1-2.6.2-5.2.3-7.8.1-5.3,0-10.7-.2-16Z"/>
</svg>